:SAMPLES-PER-SECOND 30
:FULLY-SPECIFIED
:DEGREES
505
root  -3.6786 41.0099 0.657265 172.117 -83.5283 -169.737
RightUpLeg  1.15691 -0.677576 -1.11724
RightLeg  -5.99029 -14.3964 2.26309
RightFoot  3.61914 -0.385724 3.03
RightToes  -3.1126e-008 1.75238e-005 3.56266e-009
Spine  12.1875 1.03622 1.93547
Spine1  -17.5083 1.24387 -4.41326
HEad  4.56413 -21.4331 2.96111
LeftShoulder1  0.215826 2.48807 -14.2972
LeftArm  8.8179 58.3781 -41.51
LeftForeArm  67.7663 -77.8436 -49.0516
LeftHand  -0.642567 -4.35697 7.93218
RightShoulder  -0.176357 -4.5167 9.68902
RightArm  -53.0273 23.2876 5.59799
RightForeArm  14.7237 58.5943 17.3356
RightHand  -0.219882 8.11221 -2.26664
LeftUpLeg  2.19268 1.59928 2.9446
LeftLeg  -3.54268 23.425 -1.63257
LeftFoot  0.19792 0.330301 -3.2952
LeftToes  4.78049e-008 1.46235e-008 1.34219e-009
506
root  -3.69022 41.012 0.652901 172.037 -84.3267 -169.689
RightUpLeg  1.32486 -0.805551 -1.25226
RightLeg  -6.04986 -15.0705 2.32981
RightFoot  3.49971 -0.386558 3.05398
RightToes  -3.1126e-008 1.75238e-005 3.56266e-009
Spine  11.8698 0.845264 2.00819
Spine1  -17.0994 1.08241 -4.70936
HEad  4.64211 -20.5124 3.07154
LeftShoulder1  0.204076 2.53017 -13.9875
LeftArm  8.09673 58.4616 -41.9441
LeftForeArm  67.1514 -77.6992 -48.1766
LeftHand  -0.64725 -4.68921 7.73772
RightShoulder  -0.22314 -4.79069 9.69169
RightArm  -56.0104 22.1413 4.86813
RightForeArm  14.4062 52.7845 13.7071
RightHand  -0.336437 7.90581 -3.30292
LeftUpLeg  2.18713 1.55759 2.84638
LeftLeg  -3.6723 22.775 -1.72267
LeftFoot  0.295849 0.317407 -3.10087
LeftToes  4.78049e-008 1.46235e-008 1.34219e-009
507
root  -3.67535 41.0121 0.654679 172.304 -84.7379 -169.983
RightUpLeg  1.36057 -0.904973 -1.36651
RightLeg  -6.01873 -15.3572 2.35981
RightFoot  3.43383 -0.383961 3.02781
RightToes  -3.1126e-008 1.75238e-005 3.56266e-009
Spine  11.7647 0.797121 1.86854
Spine1  -16.867 1.03348 -4.63096
HEad  4.65263 -19.9343 3.38018
LeftShoulder1  0.222156 2.44921 -14.1084
LeftArm  7.24899 58.8783 -41.9936
LeftForeArm  68.2153 -77.9117 -49.3993
LeftHand  -0.577323 -4.35222 7.16337
RightShoulder  -0.252169 -4.96533 9.63259
RightArm  -58.9745 21.9427 4.6533
RightForeArm  16.0755 47.8335 11.1833
RightHand  -0.264402 8.07024 -2.64887
LeftUpLeg  2.13687 1.50434 2.76392
LeftLeg  -3.67994 22.419 -1.73375
LeftFoot  0.34623 0.316789 -3.09972
LeftToes  4.78049e-008 1.46235e-008 1.34219e-009
508
root  -3.66039 41.0113 0.657545 172.376 -84.7854 -170.145
RightUpLeg  1.40805 -0.950919 -1.40065
RightLeg  -5.95127 -15.3551 2.34512
RightFoot  3.41274 -0.386915 3.08984
RightToes  -3.1126e-008 1.75238e-005 3.56266e-009
Spine  11.7177 0.886202 1.91002
Spine1  -16.6464 1.1307 -4.61113
HEad  4.50998 -19.5519 3.30009
LeftShoulder1  0.195885 2.58009 -14.2545
LeftArm  6.74954 58.6297 -42.0543
LeftForeArm  66.987 -77.7317 -48.508
LeftHand  -0.577484 -4.06976 7.35793
RightShoulder  -0.279718 -5.13179 9.57098
RightArm  -59.1096 21.0263 4.37714
RightForeArm  14.2609 45.7042 10.4825
RightHand  -0.319136 7.88886 -3.16284
LeftUpLeg  2.13091 1.49099 2.73416
LeftLeg  -3.51681 22.376 -1.6652
LeftFoot  0.299358 0.315698 -3.09192
LeftToes  4.78049e-008 1.46235e-008 1.34219e-009
509
root  -3.65894 41.0103 0.662451 172.635 -84.4352 -170.64
RightUpLeg  1.59188 -0.97299 -1.40199
RightLeg  -5.87733 -14.9798 2.2881
RightFoot  3.39232 -0.386376 3.09872
RightToes  -3.1126e-008 1.75238e-005 3.56266e-009
Spine  11.636 1.08585 1.99636
Spine1  -16.3394 1.33955 -4.58642
HEad  4.80253 -19.3391 2.81832
LeftShoulder1  0.202679 2.54768 -14.2434
LeftArm  6.49395 58.7096 -42.0531
LeftForeArm  67.3019 -77.8172 -49.0553
LeftHand  -0.569805 -4.18762 7.18298
RightShoulder  -0.244103 -4.89979 9.88427
RightArm  -60.2082 21.0051 4.47645
RightForeArm  14.3625 45.2966 10.3235
RightHand  -0.394454 7.20778 -3.9777
LeftUpLeg  2.38683 1.53012 2.73039
LeftLeg  -3.42055 22.6943 -1.62773
LeftFoot  0.229764 0.316009 -3.1065
LeftToes  4.78049e-008 1.46235e-008 1.34219e-009
510
root  -3.64367 41.0089 0.665338 173.135 -83.9166 -171.298
RightUpLeg  1.66036 -1.0153 -1.41424
RightLeg  -5.83438 -14.4001 2.2672
RightFoot  3.42841 -0.381007 3.03267
RightToes  -3.1126e-008 1.75238e-005 3.56266e-009
Spine  11.3017 1.25149 1.9398
Spine1  -15.7153 1.50945 -4.37866
HEad  4.93267 -18.5862 2.6777
LeftShoulder1  0.22348 2.45687 -14.412
LeftArm  6.35866 58.5721 -41.8823
LeftForeArm  67.5222 -77.8432 -49.1646
LeftHand  -0.596857 -4.10906 7.55601
RightShoulder  -0.170359 -4.45222 10.2464
RightArm  -59.6519 21.0427 4.49535
RightForeArm  13.9917 46.8492 10.9647
RightHand  -0.43526 7.4772 -4.28355
LeftUpLeg  2.5831 1.61845 2.76101
LeftLeg  -3.36601 23.0854 -1.67163
LeftFoot  0.150264 0.318782 -3.15988
LeftToes  4.78049e-008 1.46235e-008 1.34219e-009
